#!OML:ASF E:\id_vita\Project 1\Capture day 1\Session 1\Male1.ASF
:FULLY-SPECIFIED
:DEGREES
738
root 22.2258 16.494 16.6232 -11.4369 -86.0888 8.35505
lowerback 4.85708 -0.529801 -0.450732
upperback 3.71589 -0.825709 2.21614
thorax 1.1366 -0.488514 2.56074
lowerneck -10.4122 7.4219 4.86097
upperneck 12.4188 8.19573 6.35403
head 5.404 4.62037 1.8319
rclavicle 1.64991e-014 -1.82882e-014
rhumerus -224.439 -133.991 -229.768
rradius 16.1332
rwrist -340.216
rhand -22.8311 36.3456
rfingers 7.12502
rthumb 3.60623 -353.604
lclavicle 1.64991e-014 -1.82882e-014
lhumerus -7.43632 -15.6214 86.9586
lradius 48.4794
lwrist 2.81644
lhand -11.0886 40.2339
lfingers 7.12502
lthumb 14.9351 429.675
rfemur -8.77482 -10.9173 23.8966
rtibia 15.8507
rfoot -3.27675 -10.482
rtoes -2.81486
lfemur -0.350586 11.4245 -9.10057
ltibia 53.2952
lfoot 5.6946 2.59538
ltoes 38.4371
739
root 22.1435 16.5014 16.6093 -9.2541 -86.4454 6.12536
lowerback 4.95223 -0.550703 -0.128461
upperback 3.66031 -0.843712 2.38392
thorax 1.0253 -0.493505 2.55478
lowerneck -10.4184 7.78295 5.13676
upperneck 12.6148 8.65563 6.14617
head 5.48437 4.8482 1.76893
rclavicle -5.96354e-016 1.82882e-014
rhumerus -222.664 -136.634 -232.947
rradius 17.2336
rwrist -343.711
rhand -22.3648 36.0594
rfingers 7.12502
rthumb 4.05655 -353.882
lclavicle -5.96354e-016 1.82882e-014
lhumerus -8.07374 -14.9843 87.165
lradius 46.1638
lwrist 2.25017
lhand -11.2791 38.8437
lfingers 7.12502
lthumb 14.7517 428.299
rfemur -8.2469 -11.123 24.1821
rtibia 15.6075
rfoot -3.62734 -10.0636
rtoes -3.46793
lfemur -1.11948 10.9955 -8.65986
ltibia 54.1741
lfoot 4.72984 0.921983
ltoes 37.588
740
root 22.0646 16.5087 16.6002 -7.24937 -87.0757 3.98397
lowerback 5.04399 -0.461507 0.211415
upperback 3.76265 -0.722131 2.53387
thorax 1.07225 -0.432363 2.5141
lowerneck -10.135 7.90637 5.25019
upperneck 12.6593 8.83883 6.02543
head 5.4603 4.93162 1.7177
rclavicle 1.98785e-016 -7.95139e-016
rhumerus -221.324 -138.488 -235.406
rradius 18.3062
rwrist -346.338
rhand -22.3596 35.7703
rfingers 7.12502
rthumb 4.06155 -354.171
lclavicle 1.98785e-016 -7.95139e-016
lhumerus -8.45294 -14.1943 87.2941
lradius 43.678
lwrist 1.5355
lhand -10.9178 38.3808
lfingers 7.12502
lthumb 15.0997 427.81
rfemur -7.70568 -11.1592 24.4211
rtibia 15.5325
rfoot -4.16498 -9.67897
rtoes -2.75523
lfemur -1.75181 10.7545 -8.24627
ltibia 54.895
lfoot 4.22955 -0.414582
ltoes 38.2317
741
root 21.9867 16.515 16.5961 -8.71357 -87.8141 5.30214
lowerback 5.21632 -0.319461 0.560632
upperback 3.85736 -0.524515 2.51632
thorax 1.06236 -0.329331 2.29293
lowerneck -9.91169 8.03348 5.72638
upperneck 12.5869 9.00977 5.63526
head 5.44128 5.00542 1.52821
rclavicle 6.85807e-015 -2.38542e-014
rhumerus -220.527 -139.574 -237.179
rradius 19.1954
rwrist -348.014
rhand -22.2824 35.578
rfingers 7.12502
rthumb 4.1361 -354.362
lclavicle 6.85807e-015 -2.38542e-014
lhumerus -8.86768 -13.2799 87.2984
lradius 41.1167
lwrist 0.629298
lhand -10.4193 38.3321
lfingers 7.12502
lthumb 15.5798 427.725
rfemur -7.19552 -11.0197 24.4222
rtibia 15.5431
rfoot -4.79918 -9.40541
rtoes -4.41811
lfemur -2.35236 10.5797 -8.10965
ltibia 55.4638
lfoot 4.11777 -1.51512
ltoes 38.6639
742
root 21.9101 16.5189 16.5896 -10.4192 -88.2991 7.13925
lowerback 5.30581 -0.267663 0.99626
upperback 3.71561 -0.428181 2.41548
thorax 0.858971 -0.269079 1.94114
lowerneck -9.81587 8.25172 6.06473
upperneck 12.7384 9.25549 5.5664
head 5.49384 5.13735 1.47697
rclavicle 5.86415e-015 -4.77083e-015
rhumerus -219.954 -141.32 -239.205
rradius 20.3582
rwrist -350.397
rhand -22.033 35.6227
rfingers 7.12502
rthumb 4.37695 -354.312
lclavicle 5.86415e-015 -4.77083e-015
lhumerus -9.51024 -12.3836 87.199
lradius 38.4909
lwrist -0.158371
lhand -10.2968 38.5192
lfingers 7.12502
lthumb 15.6978 427.903
rfemur -7.00319 -10.8195 24.4623
rtibia 15.5181
rfoot -5.11092 -9.3784
rtoes -3.7514
lfemur -3.3136 10.2446 -8.083
ltibia 55.9283
lfoot 3.85443 -2.59426
ltoes 37.5336
743
root 21.8383 16.5207 16.5809 -5.39636 -88.7993 2.31796
lowerback 5.10352 -0.19271 1.33412
upperback 3.71956 -0.324385 2.55699
thorax 0.972509 -0.21386 1.89137
lowerneck -10.1353 8.36971 5.87935
upperneck 13.4309 9.31444 5.96319
head 5.73839 5.20378 1.66889
rclavicle -1.88845e-015 -1.27222e-014
rhumerus -219.32 -141.727 -240.138
rradius 20.8291
rwrist -351.393
rhand -22.0718 36.6497
rfingers 7.12502
rthumb 4.33945 -353.286
lclavicle -1.88845e-015 -1.27222e-014
lhumerus -9.83491 -11.1471 87.3009
lradius 35.648
lwrist -0.93986
lhand -10.4122 38.8258
lfingers 7.12502
lthumb 15.5867 428.218
rfemur -6.95067 -10.4326 24.7326
rtibia 15.5349
rfoot -5.26632 -9.60404
rtoes -4.85105
lfemur -4.36446 9.94999 -7.83766
ltibia 56.2808
lfoot 3.28301 -3.53463
ltoes 35.992
744
root 21.7694 16.5186 16.5753 1.53828 -89.4087 -4.45804
lowerback 5.05504 -0.0722353 1.60741
upperback 3.70067 -0.158239 2.68495
thorax 0.976508 -0.128437 1.86275
lowerneck -10.2362 8.49354 5.9261
upperneck 13.8038 9.44324 5.95899
head 5.8762 5.27825 1.68897
rclavicle 2.28602e-015 2.8625e-014
rhumerus -218.797 -142.909 -241.461
rradius 21.8371
rwrist -353.127
rhand -21.9764 37.3214
rfingers 7.12502
rthumb 4.43158 -352.612
lclavicle 2.28602e-015 2.8625e-014
lhumerus -10.2049 -9.70761 87.3702
lradius 32.7224
lwrist -1.83488
lhand -10.6241 38.6983
lfingers 7.12502
lthumb 15.3826 428.106
rfemur -6.98089 -10.1254 24.9312
rtibia 15.758
rfoot -5.56201 -9.82458
rtoes -6.46525
lfemur -5.31462 9.7564 -7.64265
ltibia 56.448
lfoot 2.75767 -4.22475
ltoes 35.3867
745
root 21.7057 16.5185 16.573 -82.6566 -89.8506 79.9997
lowerback 5.02779 -0.00345282 1.68502
upperback 3.62606 -0.0598999 2.66547
thorax 0.912642 -0.0766855 1.79494
lowerneck -10.1135 8.63833 6.24735
upperneck 13.8575 9.6345 5.68275
head 5.90338 5.36686 1.56863
rclavicle -2.48481e-015 -8.74653e-015
rhumerus -218.219 -143.826 -242.738
rradius 22.7065
rwrist -354.389
rhand -21.9042 37.0488
rfingers 7.12502
rthumb 4.50126 -352.883
lclavicle -2.48481e-015 -8.74653e-015
lhumerus -10.5652 -8.12987 87.1826
lradius 29.8305
lwrist -2.69166
lhand -10.5832 38.5289
lfingers 7.12502
lthumb 15.422 427.934
rfemur -7.20694 -10.0417 24.8117
rtibia 16.0809
rfoot -5.90538 -9.84139
rtoes -8.67165
lfemur -6.37208 9.54967 -7.82966
ltibia 56.432
lfoot 2.3633 -4.76225
ltoes 35.1197
746
root 21.6433 16.5301 16.5738 -128.359 -88.9728 126.045
lowerback 4.9464 0.0996797 1.31738
upperback 3.49514 0.0748934 2.50509
thorax 0.819116 -0.00991396 1.83015
lowerneck -10.0715 8.82617 6.53995
upperneck 14.047 9.88413 5.36358
head 5.98921 5.48404 1.45336
rclavicle 3.27995e-015 2.06736e-014
rhumerus -217.608 -145.036 -244.133
rradius 23.7374
rwrist -355.951
rhand -22.4979 36.3793
rfingers 7.12502
rthumb 3.92796 -353.564
lclavicle 3.27995e-015 2.06736e-014
lhumerus -10.9008 -6.10002 86.9278
lradius 26.8658
lwrist -3.9158
lhand -10.2162 38.6202
lfingers 7.12502
lthumb 15.7754 427.997
rfemur -7.53961 -10.0049 24.1171
rtibia 16.5026
rfoot -6.47013 -9.49049
rtoes -8.95247
lfemur -7.3769 9.41422 -8.64488
ltibia 56.1968
lfoot 1.80806 -5.03785
ltoes 34.5034
747
root 21.5779 16.5329 16.5754 -147.908 -88.1958 145.602
lowerback 5.12545 0.245561 1.37266
upperback 3.48551 0.274466 2.53536
thorax 0.705346 0.0894526 1.82152
lowerneck -9.98051 9.09042 6.78234
upperneck 14.0772 10.2926 4.86871
head 6.02408 5.66042 1.29776
rclavicle 9.93923e-016 1.82882e-014
rhumerus -217.098 -146.84 -245.653
rradius 25.0473
rwrist -358.089
rhand -23.0273 36.3094
rfingers 7.12502
rthumb 3.41671 -353.643
lclavicle 9.93923e-016 1.82882e-014
lhumerus -11.1566 -3.16305 86.6238
lradius 23.7051
lwrist -5.87072
lhand -9.77062 38.8977
lfingers 7.12502
lthumb 16.2045 428.24
rfemur -7.5103 -9.35514 23.943
rtibia 16.9804
rfoot -6.92553 -9.48873
rtoes -8.61415
lfemur -7.84935 9.4605 -8.75201
ltibia 55.8277
lfoot 1.01331 -5.13263
ltoes 34.2063
748
root 21.5151 16.529 16.5754 -156.75 -87.3614 154.582
lowerback 5.18282 0.450073 1.50789
upperback 3.54013 0.550118 2.48255
thorax 0.725625 0.229205 1.67901
lowerneck -10.1543 9.28452 7.10692
upperneck 14.0193 10.5334 4.58829
head 6.07099 5.77355 1.19316
rclavicle -5.36719e-015 -2.54444e-014
rhumerus -216.672 -147.974 -246.998
rradius 26.2143
rwrist -359.728
rhand -22.9827 36.5378
rfingers 7.12502
rthumb 3.45976 -353.414
lclavicle -5.36719e-015 -2.54444e-014
lhumerus -11.0642 0.396988 86.0309
lradius 20.3263
lwrist -8.55739
lhand -9.60009 39.1292
lfingers 7.12502
lthumb 16.3687 428.458
rfemur -7.66587 -8.61312 23.8964
rtibia 17.478
rfoot -7.41292 -9.70453
rtoes -8.21606
lfemur -8.47474 9.53279 -8.79143
ltibia 55.3254
lfoot -0.0157598 -5.03486
ltoes 33.9011
749
root 21.4526 16.5282 16.574 -160.368 -86.621 158.466
lowerback 5.21569 0.590881 1.59556
upperback 3.38483 0.751051 2.4773
thorax 0.544966 0.332632 1.61396
lowerneck -9.71624 9.29889 7.02757
upperneck 13.8168 10.6034 4.65595
head 5.92459 5.80021 1.20141
rclavicle -2.68359e-015 -1.03368e-014
rhumerus -216.684 -149.787 -248.264
rradius 27.8566
rwrist -361.607
rhand -23.0281 36.0744
rfingers 7.12502
rthumb 3.41599 -353.878
lclavicle -2.68359e-015 -1.03368e-014
lhumerus -11.3363 5.04793 85.2519
lradius 17.0356
lwrist -12.2674
lhand -9.70748 39.4899
lfingers 7.12502
lthumb 16.2653 428.828
rfemur -7.92849 -8.0533 23.8694
rtibia 17.9255
rfoot -7.94247 -9.86733
rtoes -7.58248
lfemur -9.26803 9.53055 -8.84301
ltibia 54.6813
lfoot -1.33849 -4.8699
ltoes 32.4612
750
root 21.389 16.5279 16.5784 -161.652 -85.7443 159.988
lowerback 5.32929 0.796987 1.68986
upperback 3.21916 1.04336 2.39888
thorax 0.309527 0.482515 1.46364
lowerneck -9.7078 9.49513 7.56616
upperneck 13.9405 10.8244 4.33465
head 6.01586 5.91322 1.04933
rclavicle -6.06293e-015 -1.82882e-014
rhumerus -216.224 -149 -248.208
rradius 27.1865
rwrist -360.683
rhand -23.1692 36.9101
rfingers 7.12502
rthumb 3.27971 -353.044
lclavicle -6.06293e-015 -1.82882e-014
lhumerus -11.7922 10.3276 84.1244
lradius 14.0397
lwrist -16.719
lhand -9.69518 40.1168
lfingers 7.12502
lthumb 16.2772 429.454
rfemur -8.22922 -7.86256 23.6836
rtibia 18.4493
rfoot -8.34419 -9.62892
rtoes -9.53249
lfemur -9.94035 9.51217 -9.0391
ltibia 53.8758
lfoot -2.72262 -4.34092
ltoes 31.4301
751
root 21.3243 16.5287 16.5844 -160.682 -84.734 159.249
lowerback 5.38321 0.894569 1.58737
upperback 3.1259 1.17746 2.2739
thorax 0.181965 0.550859 1.38405
lowerneck -10.2239 9.70592 7.5402
upperneck 14.3364 11.0545 4.30295
head 6.23265 6.03402 1.106
rclavicle -1.70955e-014 -3.10104e-014
rhumerus -215.911 -150.886 -249.54
rradius 28.4879
rwrist -362.181
rhand -22.7469 37.0537
rfingers 7.12502
rthumb 3.68752 -352.894
lclavicle -1.70955e-014 -3.10104e-014
lhumerus -12.5839 18.4955 82.1446
lradius 11.2344
lwrist -23.6217
lhand -9.75419 40.4572
lfingers 7.12502
lthumb 16.2203 429.799
rfemur -8.58646 -7.74138 23.2681
rtibia 19.0666
rfoot -8.84236 -9.28589
rtoes -9.229
lfemur -10.5315 9.59404 -9.44903
ltibia 52.8922
lfoot -4.14901 -3.60726
ltoes 30.9747
752
root 21.2623 16.531 16.5831 -159.123 -84.0006 157.903
lowerback 5.37281 0.981448 1.31265
upperback 3.02432 1.28871 2.17298
thorax 0.0775348 0.606222 1.42751
lowerneck -9.76264 9.87768 7.77917
upperneck 14.1433 11.2933 4.31191
head 6.11116 6.15368 1.06466
rclavicle 4.77083e-015 4.77083e-015
rhumerus -215.656 -151.977 -250.455
rradius 29.3835
rwrist -363.011
rhand -21.5182 37.6976
rfingers 7.12502
rthumb 4.87396 -352.226
lclavicle 4.77083e-015 4.77083e-015
lhumerus -15.799 40.0513 75.8052
lradius 8.34098
lwrist -44.4473
lhand -9.76022 39.4888
lfingers 7.12502
lthumb 16.2145 428.831
rfemur -8.94111 -7.50502 22.889
rtibia 19.7686
rfoot -9.53498 -9.25328
rtoes -9.42455
lfemur -11.1123 9.55094 -9.79236
ltibia 51.7379
lfoot -5.72669 -3.16753
ltoes 29.4612
